<svg class="plot-d6a7b5" fill="currentColor" font-family="system-ui, sans-serif" font-size="10" text-anchor="middle" width="640" height="400" viewBox="0 0 640 400" xmlns="http://www.w3.org/2000/svg" xmlns:xlink="http://www.w3.org/1999/xlink"><style>.plot-d6a7b5 {
  display: block;
  background: white;
  height: auto;
  height: intrinsic;
  max-width: 100%;
}
.plot-d6a7b5 text,
.plot-d6a7b5 tspan {
  white-space: pre;
}</style><g aria-label="y-grid" stroke="currentColor" stroke-opacity="0.1" transform="translate(0,0.5)"><line x1="60" x2="620" y1="370" y2="370"/><line x1="60" x2="620" y1="335" y2="335"/><line x1="60" x2="620" y1="300" y2="300"/><line x1="60" x2="620" y1="265" y2="265"/><line x1="60" x2="620" y1="230" y2="230"/><line x1="60" x2="620" y1="195" y2="195"/><line x1="60" x2="620" y1="160" y2="160"/><line x1="60" x2="620" y1="125.00000000000001" y2="125.00000000000001"/><line x1="60" x2="620" y1="89.99999999999999" y2="89.99999999999999"/><line x1="60" x2="620" y1="54.99999999999999" y2="54.99999999999999"/><line x1="60" x2="620" y1="20" y2="20"/></g><g aria-label="y-axis tick" fill="none" stroke="currentColor" transform="translate(0,0.5)"><path transform="translate(60,370)" d="M0,0L-6,0"/><path transform="translate(60,335)" d="M0,0L-6,0"/><path transform="translate(60,300)" d="M0,0L-6,0"/><path transform="translate(60,265)" d="M0,0L-6,0"/><path transform="translate(60,230)" d="M0,0L-6,0"/><path transform="translate(60,195)" d="M0,0L-6,0"/><path transform="translate(60,160)" d="M0,0L-6,0"/><path transform="translate(60,125.00000000000001)" d="M0,0L-6,0"/><path transform="translate(60,89.99999999999999)" d="M0,0L-6,0"/><path transform="translate(60,54.99999999999999)" d="M0,0L-6,0"/><path transform="translate(60,20)" d="M0,0L-6,0"/></g><g aria-label="y-axis tick label" text-anchor="end" font-variant="tabular-nums" transform="translate(-8.5,0.5)"><text y="0.32em" transform="translate(60,370)">0.0</text><text y="0.32em" transform="translate(60,335)">0.1</text><text y="0.32em" transform="translate(60,300)">0.2</text><text y="0.32em" transform="translate(60,265)">0.3</text><text y="0.32em" transform="translate(60,230)">0.4</text><text y="0.32em" transform="translate(60,195)">0.5</text><text y="0.32em" transform="translate(60,160)">0.6</text><text y="0.32em" transform="translate(60,125.00000000000001)">0.7</text><text y="0.32em" transform="translate(60,89.99999999999999)">0.8</text><text y="0.32em" transform="translate(60,54.99999999999999)">0.9</text><text y="0.32em" transform="translate(60,20)">1.0</text></g><g aria-label="y-axis label" text-anchor="start" transform="translate(-56.5,-16.5)"><text y="0.71em" transform="translate(60,20)">↑ Frequency</text></g><g aria-label="x-axis tick" fill="none" stroke="currentColor" transform="translate(0.5,0)"><path transform="translate(102,370)" d="M0,0L0,6"/><path transform="translate(158,370)" d="M0,0L0,6"/><path transform="translate(214,370)" d="M0,0L0,6"/><path transform="translate(270,370)" d="M0,0L0,6"/><path transform="translate(326,370)" d="M0,0L0,6"/><path transform="translate(382,370)" d="M0,0L0,6"/><path transform="translate(438,370)" d="M0,0L0,6"/><path transform="translate(494,370)" d="M0,0L0,6"/><path transform="translate(550,370)" d="M0,0L0,6"/><path transform="translate(606,370)" d="M0,0L0,6"/></g><g aria-label="x-axis tick label" font-variant="tabular-nums" transform="translate(0.5,9.5)"><text transform="translate(102,370)"><tspan x="0" y="0.71em">7 PM</tspan><tspan x="0" dy="1em">Jun 20</tspan></text><text y="0.71em" transform="translate(158,370)">8 PM</text><text y="0.71em" transform="translate(214,370)">9 PM</text><text y="0.71em" transform="translate(270,370)">10 PM</text><text y="0.71em" transform="translate(326,370)">11 PM</text><text transform="translate(382,370)"><tspan x="0" y="0.71em">12 AM</tspan><tspan x="0" dy="1em">Jun 21</tspan></text><text y="0.71em" transform="translate(438,370)">1 AM</text><text y="0.71em" transform="translate(494,370)">2 AM</text><text y="0.71em" transform="translate(550,370)">3 AM</text><text y="0.71em" transform="translate(606,370)">4 AM</text></g><defs>
      <linearGradient id="gradient" gradientTransform="rotate(90)">
        <stop offset="15%" stop-color="purple"/>
        <stop offset="75%" stop-color="red"/>
        <stop offset="100%" stop-color="gold"/>
      </linearGradient>
    </defs><g aria-label="rect" fill="url(#gradient)"><rect x="61" y="369.7491039426523" width="13" height="0.2508960573476884"/><rect x="75" y="368.494623655914" width="13" height="1.5053763440860166"/><rect x="89" y="361.59498207885304" width="13" height="8.405017921146964"/><rect x="103" y="355.19713261648747" width="13" height="14.802867383512535"/><rect x="117" y="324.83870967741933" width="13" height="45.16129032258067"/><rect x="131" y="299.3727598566308" width="13" height="70.62724014336919"/><rect x="145" y="259.9820788530466" width="13" height="110.01792114695343"/><rect x="159" y="218.70967741935485" width="13" height="151.29032258064515"/><rect x="173" y="179.31899641577058" width="13" height="190.68100358422942"/><rect x="187" y="156.98924731182797" width="13" height="213.01075268817203"/><rect x="201" y="124.6236559139785" width="13" height="245.3763440860215"/><rect x="215" y="115.84229390681004" width="13" height="254.15770609318997"/><rect x="229" y="83.47670250896056" width="13" height="286.52329749103944"/><rect x="243" y="45.842293906810056" width="13" height="324.15770609319"/><rect x="257" y="25.645161290322577" width="13" height="344.35483870967744"/><rect x="271" y="23.888888888888875" width="13" height="346.11111111111114"/><rect x="285" y="22.759856630824373" width="13" height="347.2401433691756"/><rect x="299" y="21.881720430107524" width="13" height="348.1182795698925"/><rect x="313" y="21.379928315412187" width="13" height="348.6200716845878"/><rect x="327" y="21.254480286738364" width="13" height="348.7455197132616"/><rect x="341" y="21.003584229390675" width="13" height="348.9964157706093"/><rect x="355" y="20.878136200716852" width="13" height="349.1218637992831"/><rect x="369" y="20.752688172043026" width="13" height="349.247311827957"/><rect x="383" y="20.752688172043026" width="13" height="349.247311827957"/><rect x="397" y="20.62724014336916" width="13" height="349.37275985663086"/><rect x="411" y="20.62724014336916" width="13" height="349.37275985663086"/><rect x="425" y="20.501792114695338" width="13" height="349.4982078853047"/><rect x="439" y="20.25089605734769" width="13" height="349.7491039426523"/><rect x="453" y="20.25089605734769" width="13" height="349.7491039426523"/><rect x="467" y="20.25089605734769" width="13" height="349.7491039426523"/><rect x="481" y="20.25089605734769" width="13" height="349.7491039426523"/><rect x="495" y="20.25089605734769" width="13" height="349.7491039426523"/><rect x="509" y="20.25089605734769" width="13" height="349.7491039426523"/><rect x="523" y="20.25089605734769" width="13" height="349.7491039426523"/><rect x="537" y="20.125448028673823" width="13" height="349.8745519713262"/><rect x="551" y="20.125448028673823" width="13" height="349.8745519713262"/><rect x="565" y="20.125448028673823" width="13" height="349.8745519713262"/><rect x="579" y="20.125448028673823" width="13" height="349.8745519713262"/><rect x="593" y="20.125448028673823" width="13" height="349.8745519713262"/><rect x="607" y="20" width="13" height="350"/></g><g aria-label="rule" stroke="currentColor" transform="translate(0,0.5)"><line x1="60" x2="620" y1="370" y2="370"/></g><g aria-label="rule" stroke="currentColor" transform="translate(0.5,0)"><line x1="214" x2="214" y1="20" y2="370"/></g></svg>